<svg width="17" height="16" viewBox="0 0 17 16" fill="none" xmlns="http://www.w3.org/2000/svg">
<path d="M8.49321 7.43619C10.0067 7.43619 11.2339 8.66334 11.2339 10.1769C11.2339 10.8195 11.0126 11.4104 10.6422 11.8778H14.9516C15.7014 11.8778 16.3137 11.2656 16.3137 10.5157V2.03493C16.3137 1.28508 15.7013 0.672861 14.9516 0.672861H2.03483C1.28498 0.672861 0.67276 1.28508 0.67276 2.03493V10.5157C0.67276 11.2656 1.28498 11.8778 2.03483 11.8778H6.34415C5.97371 11.4105 5.75242 10.8195 5.75242 10.1769C5.75242 8.66334 6.97957 7.43619 8.49311 7.43619H8.49321ZM8.49321 8.70643C9.30512 8.70643 9.96365 9.36496 9.96365 10.1769C9.96365 10.9888 9.30512 11.6473 8.49321 11.6473C7.68129 11.6473 7.02276 10.9888 7.02276 10.1769C7.02276 9.36496 7.68129 8.70643 8.49321 8.70643ZM8.49321 9.37919C8.05254 9.37919 7.69552 9.73631 7.69552 10.1769C7.69552 10.6175 8.05264 10.9746 8.49321 10.9746C8.93388 10.9746 9.29089 10.6174 9.29089 10.1769C9.29089 9.73621 8.93378 9.37919 8.49321 9.37919ZM4.7178 6.13174C4.27491 6.13174 4.27491 5.45898 4.7178 5.45898H12.2687C12.7116 5.45898 12.7116 6.13174 12.2687 6.13174H4.7178ZM3.26188 4.6626C2.81899 4.6626 2.81899 3.98984 3.26188 3.98984H13.7245C14.1674 3.98984 14.1674 4.6626 13.7245 4.6626H3.26188ZM3.26188 3.19347C2.81899 3.19347 2.81899 2.52071 3.26188 2.52071H13.7245C14.1674 2.52071 14.1674 3.19347 13.7245 3.19347H3.26188ZM10.4633 12.5506V15.6638C10.4633 15.9656 10.098 16.1106 9.88908 15.9016L8.49321 14.7427L7.07362 15.9212C6.85364 16.1042 6.52437 15.9423 6.52457 15.6637L6.52306 12.5505H2.03483C0.91363 12.5505 0 11.6367 0 10.5156V2.03483C0 0.91363 0.913832 0 2.03483 0H14.9516C16.0727 0 16.9864 0.91363 16.9864 2.03483V10.5156C16.9864 11.6368 16.0727 12.5505 14.9516 12.5505H10.4633V12.5506ZM9.79049 12.5916C9.40421 12.7996 8.96243 12.9176 8.49321 12.9176C8.02388 12.9176 7.5821 12.7995 7.19582 12.5915V14.9492L8.27595 14.0525C8.39765 13.9485 8.58019 13.9441 8.70744 14.0499L9.7906 14.9492V12.5916H9.79049ZM10.5611 10.1769C10.5611 9.03469 9.6354 8.10895 8.49321 8.10895C7.35102 8.10895 6.42528 9.03469 6.42528 10.1769C6.42528 11.3206 7.35284 12.2448 8.49321 12.2448C9.63368 12.2448 10.5611 11.3206 10.5611 10.1769Z" fill="#474747"/>
</svg>
