<svg width="16" height="16" viewBox="0 0 16 16" fill="none" xmlns="http://www.w3.org/2000/svg">
<path d="M8.53322 4.13294C8.53322 3.83838 8.29445 3.59961 7.99989 3.59961C7.70533 3.59961 7.46655 3.83838 7.46655 4.13294V7.99961C7.46655 8.14105 7.52274 8.2767 7.62277 8.37673L10.0228 10.7767C10.231 10.985 10.5687 10.985 10.777 10.7767C10.9853 10.5685 10.9853 10.2308 10.777 10.0225L8.53322 7.7787V4.13294Z" fill="#474747"/>
<path fill-rule="evenodd" clip-rule="evenodd" d="M8 0C3.58173 0 0 3.58173 0 8C0 12.4183 3.58173 16 8 16C12.4183 16 16 12.4183 16 8C16 3.58173 12.4183 0 8 0ZM1.06667 8C1.06667 4.17083 4.17083 1.06667 8 1.06667C11.8292 1.06667 14.9333 4.17083 14.9333 8C14.9333 11.8292 11.8292 14.9333 8 14.9333C4.17083 14.9333 1.06667 11.8292 1.06667 8Z" fill="#474747"/>
</svg>
