<svg width="16" height="16" viewBox="0 0 16 16" fill="none" xmlns="http://www.w3.org/2000/svg">
<path d="M9.87823 1.99256e-08H6.12147C6.05752 -1.9361e-05 5.99419 0.0140999 5.9351 0.0415493C5.87602 0.0689987 5.82233 0.10924 5.77711 0.159977C5.73189 0.210713 5.69602 0.27095 5.67155 0.337244C5.64709 0.403538 5.6345 0.474591 5.63452 0.546343V15.4537C5.6345 15.5254 5.64709 15.5965 5.67155 15.6628C5.69602 15.729 5.73189 15.7893 5.77711 15.84C5.82233 15.8908 5.87602 15.931 5.9351 15.9584C5.99419 15.9859 6.05752 16 6.12147 16H9.87823C9.94219 16 10.0055 15.9859 10.0646 15.9584C10.1237 15.931 10.1774 15.8908 10.2226 15.84C10.2678 15.7893 10.3037 15.729 10.3282 15.6628C10.3526 15.5965 10.3652 15.5254 10.3652 15.4537V0.546343C10.3652 0.474591 10.3526 0.403538 10.3282 0.337244C10.3037 0.27095 10.2678 0.210713 10.2226 0.159977C10.1774 0.10924 10.1237 0.0689987 10.0646 0.0415493C10.0055 0.0140999 9.94219 -1.9361e-05 9.87823 1.99256e-08ZM9.39128 14.9073H6.60843V1.09269H9.39128V14.9073Z" fill="#474747"/>
<path d="M4.24324 6.47852H0.486952C0.423 6.4785 0.359671 6.49262 0.300584 6.52007C0.241497 6.54752 0.187809 6.58776 0.142588 6.63849C0.097367 6.68923 0.0614989 6.74947 0.0370331 6.81576C0.0125674 6.88205 -1.66176e-05 6.95311 1.64692e-08 7.02486V15.4542C-1.66176e-05 15.526 0.0125674 15.597 0.0370331 15.6633C0.0614989 15.7296 0.097367 15.7899 0.142588 15.8406C0.187809 15.8913 0.241497 15.9316 0.300584 15.959C0.359671 15.9865 0.423 16.0006 0.486952 16.0006H4.24324C4.30719 16.0006 4.37052 15.9865 4.42961 15.959C4.4887 15.9316 4.54238 15.8913 4.5876 15.8406C4.63283 15.7899 4.66869 15.7296 4.69316 15.6633C4.71763 15.597 4.73021 15.526 4.73019 15.4542V7.02486C4.73021 6.95311 4.71763 6.88205 4.69316 6.81576C4.66869 6.74947 4.63283 6.68923 4.5876 6.63849C4.54238 6.58776 4.4887 6.54752 4.42961 6.52007C4.37052 6.49262 4.30719 6.4785 4.24324 6.47852ZM3.75629 14.9079H0.973905V7.5712H3.75629V14.9079Z" fill="#474747"/>
<path d="M15.5128 2.18555H11.756C11.692 2.18553 11.6287 2.19965 11.5696 2.2271C11.5105 2.25455 11.4569 2.29479 11.4116 2.34552C11.3664 2.39626 11.3305 2.4565 11.3061 2.52279C11.2816 2.58908 11.269 2.66014 11.269 2.73189V15.4538C11.269 15.5256 11.2816 15.5966 11.3061 15.6629C11.3305 15.7292 11.3664 15.7895 11.4116 15.8402C11.4569 15.8909 11.5105 15.9312 11.5696 15.9586C11.6287 15.9861 11.692 16.0002 11.756 16.0002H15.5128C15.5767 16.0002 15.64 15.9861 15.6991 15.9586C15.7582 15.9312 15.8119 15.8909 15.8571 15.8402C15.9023 15.7895 15.9382 15.7292 15.9627 15.6629C15.9871 15.5966 15.9997 15.5256 15.9997 15.4538V2.73189C15.9997 2.66014 15.9871 2.58908 15.9627 2.52279C15.9382 2.4565 15.9023 2.39626 15.8571 2.34552C15.8119 2.29479 15.7582 2.25455 15.6991 2.2271C15.64 2.19965 15.5767 2.18553 15.5128 2.18555ZM15.0258 14.9075H12.2429V3.27823H15.0258V14.9075Z" fill="#474747"/>
</svg>
