<svg width="16" height="16" viewBox="0 0 16 16" fill="none" xmlns="http://www.w3.org/2000/svg">
<path fill-rule="evenodd" clip-rule="evenodd" d="M2.83254 0C1.84549 0 1.03273 0.674325 1.03273 1.49759V2.33786H0.562102C0.413012 2.33834 0.270212 2.38802 0.164892 2.47604C0.0595728 2.56406 0.00029423 2.68327 4.33074e-06 2.80763C-0.000285143 2.86945 0.0140243 2.9307 0.0421157 2.9879C0.0702071 3.0451 0.11153 3.09712 0.163726 3.141C0.215921 3.18488 0.277967 3.21976 0.346321 3.24363C0.414674 3.26751 0.487997 3.27992 0.562102 3.28017H1.03273V5.79913H0.562102C0.413202 5.79961 0.270567 5.84916 0.165279 5.93699C0.059991 6.02481 0.000584254 6.14379 4.33074e-06 6.26799C-0.000285143 6.3298 0.0140243 6.39105 0.0421157 6.44825C0.0702071 6.50545 0.11153 6.55748 0.163726 6.60136C0.215921 6.64523 0.277967 6.68011 0.346321 6.70398C0.414674 6.72786 0.487997 6.74028 0.562102 6.74052H1.03273V9.25948H0.562102C0.487997 9.25972 0.414674 9.27214 0.346321 9.29602C0.277967 9.31989 0.215921 9.35477 0.163726 9.39865C0.11153 9.44252 0.0702071 9.49455 0.0421157 9.55175C0.0140243 9.60895 -0.000285143 9.6702 4.33074e-06 9.73202C0.000584254 9.85622 0.059991 9.97519 0.165279 10.063C0.270567 10.1508 0.413202 10.2004 0.562102 10.2009H1.03273V12.7208H0.562102C0.487996 12.721 0.414673 12.7334 0.346319 12.7573C0.277965 12.7812 0.215919 12.816 0.163723 12.8599C0.111528 12.9038 0.0702047 12.9558 0.0421137 13.013C0.0140227 13.0702 -0.000285986 13.1315 4.33074e-06 13.1933C0.000585938 13.3175 0.0599935 13.4365 0.165281 13.5243C0.270569 13.6121 0.413203 13.6617 0.562102 13.6621H1.03273V14.5024C1.03273 15.3257 1.84549 16 2.83254 16H14.2002C15.1872 16 16 15.3257 16 14.5024V1.49759C16 0.674325 15.1872 0 14.2002 0H2.83254ZM2.83254 0.937716H14.2002C14.582 0.937716 14.8714 1.18 14.8714 1.49759V14.5024C14.8714 14.82 14.582 15.0586 14.2002 15.0586H2.83254C2.4507 15.0586 2.16133 14.82 2.16133 14.5024V13.6621H2.55811C2.70701 13.6617 2.84964 13.6121 2.95493 13.5243C3.06022 13.4365 3.11963 13.3175 3.12021 13.1933C3.1205 13.1315 3.10619 13.0702 3.0781 13.013C3.05001 12.9558 3.00868 12.9038 2.95649 12.8599C2.90429 12.816 2.84225 12.7812 2.77389 12.7573C2.70554 12.7334 2.63221 12.721 2.55811 12.7208H2.16133V10.2009H2.55811C2.70701 10.2004 2.84964 10.1508 2.95493 10.063C3.06022 9.97519 3.11963 9.85622 3.12021 9.73202C3.1205 9.6702 3.10619 9.60895 3.0781 9.55175C3.05001 9.49455 3.00868 9.44252 2.95649 9.39864C2.90429 9.35477 2.84224 9.31989 2.77389 9.29601C2.70554 9.27214 2.63221 9.25972 2.55811 9.25948H2.16133V6.74052H2.55811C2.63221 6.74028 2.70554 6.72786 2.77389 6.70399C2.84224 6.68011 2.90429 6.64524 2.95649 6.60136C3.00868 6.55748 3.05001 6.50545 3.0781 6.44825C3.10619 6.39105 3.1205 6.3298 3.12021 6.26799C3.11963 6.14379 3.06022 6.02481 2.95493 5.93699C2.84964 5.84916 2.70701 5.79961 2.55811 5.79913H2.16133V3.28017H2.55811C2.63221 3.27992 2.70554 3.26751 2.77389 3.24363C2.84224 3.21976 2.90429 3.18488 2.95649 3.141C3.00868 3.09713 3.05001 3.0451 3.0781 2.9879C3.10619 2.9307 3.1205 2.86945 3.12021 2.80763C3.11992 2.68327 3.06064 2.56406 2.95532 2.47604C2.85 2.38802 2.7072 2.33834 2.55811 2.33786H2.16133V1.49759C2.16133 1.18 2.4507 0.937716 2.83254 0.937716ZM5.02804 2.89772C4.87838 2.89725 4.73462 2.94638 4.62838 3.0343C4.52215 3.12223 4.46213 3.24175 4.46153 3.36659V5.85796C4.46125 5.92008 4.47571 5.98164 4.50408 6.03907C4.53244 6.09651 4.57416 6.1487 4.62682 6.19262C4.67949 6.23655 4.74205 6.27135 4.81091 6.29501C4.87977 6.31867 4.95356 6.33074 5.02804 6.3305H12.0091C12.0833 6.33037 12.1567 6.31804 12.2252 6.29422C12.2937 6.27039 12.3559 6.23554 12.4082 6.19165C12.4605 6.14776 12.5019 6.09569 12.5301 6.03844C12.5582 5.98118 12.5726 5.91985 12.5723 5.85796V3.36659C12.5717 3.24223 12.5121 3.12312 12.4066 3.03528C12.3011 2.94743 12.1582 2.89798 12.0091 2.89772H5.02804ZM5.59014 3.83544H11.4426V5.38911H5.59014V3.83544Z" fill="#474747"/>
</svg>
