<svg width="14" height="16" viewBox="0 0 14 16" fill="none" xmlns="http://www.w3.org/2000/svg">
<path d="M13.0667 4H12.1183C12.1496 3.90687 9.01867 0.657955 8.89723 0.494544C8.80133 0.343306 8.66884 0.2187 8.51201 0.132256C8.35518 0.0458125 8.17908 0.000323868 8 0H2.80885C2.55906 0.000280207 2.31957 0.099636 2.14294 0.27627C1.9663 0.452903 1.86695 0.692389 1.86667 0.942187V4H0.8C0.587898 4.00023 0.384549 4.08459 0.23457 4.23457C0.0845914 4.38455 0.000231519 4.5879 0 4.8V12.8C0.000231519 13.0121 0.0845914 13.2155 0.23457 13.3654C0.384549 13.5154 0.587898 13.5998 0.8 13.6H5.68276C5.56118 14.1506 5.34037 14.6746 5.03112 15.1461C4.97765 15.2296 4.94753 15.3258 4.94389 15.4249C4.94024 15.524 4.96321 15.6222 5.01041 15.7094C5.0576 15.7966 5.12729 15.8695 5.21223 15.9206C5.29717 15.9717 5.39425 15.9991 5.49338 16H8.37331C8.4725 15.9991 8.56965 15.9717 8.65463 15.9205C8.73961 15.8693 8.80931 15.7963 8.85647 15.709C8.90363 15.6218 8.92653 15.5235 8.92278 15.4243C8.91903 15.3252 8.88876 15.2289 8.83514 15.1454C8.52603 14.6741 8.30536 14.1504 8.18394 13.6H13.0667C13.2788 13.5998 13.4821 13.5154 13.6321 13.3654C13.7821 13.2155 13.8664 13.0121 13.8667 12.8V4.8C13.8664 4.5879 13.7821 4.38455 13.6321 4.23457C13.4821 4.08459 13.2788 4.00023 13.0667 4ZM13.0667 4.53333C13.1374 4.53343 13.2051 4.56155 13.2551 4.61154C13.3051 4.66153 13.3332 4.7293 13.3333 4.8V11.7333H12.2667V4.53333H13.0667ZM9.06667 1.45775L10.9421 3.46667H10.1333C9.85054 3.46634 9.57941 3.35386 9.37944 3.15389C9.17947 2.95392 9.06699 2.6828 9.06667 2.4V1.45775ZM2.4 0.942187C2.40014 0.833795 2.44326 0.729883 2.51991 0.653239C2.59655 0.576594 2.70046 0.533474 2.80885 0.533333H8C8.14141 0.533475 8.27698 0.58971 8.37697 0.689699C8.47696 0.789688 8.53319 0.925261 8.53333 1.06667V2.4C8.5338 2.8242 8.70252 3.2309 9.00248 3.53086C9.30243 3.83082 9.70913 3.99954 10.1333 4H11.2C11.3414 4.00014 11.477 4.05638 11.577 4.15637C11.677 4.25635 11.7332 4.39193 11.7333 4.53333V11.7333H2.4V0.942187ZM0.8 4.53333H1.86667V11.7333H0.533333V4.8C0.533425 4.7293 0.56155 4.66153 0.611539 4.61154C0.661529 4.56155 0.729304 4.53343 0.8 4.53333ZM8.13021 15.0005C8.21992 15.1679 8.30534 15.312 8.39141 15.4413L8.61327 15.2934L8.37331 15.4667H5.49336L5.47526 15.4413C5.84212 14.8818 6.09712 14.2565 6.22617 13.6H7.6405C7.73759 14.0874 7.90242 14.5588 8.13021 15.0005ZM13.0667 13.0667H0.8C0.729304 13.0666 0.661529 13.0385 0.611539 12.9885C0.56155 12.9385 0.533425 12.8707 0.533333 12.8V12.2667H13.3333V12.8C13.3332 12.8707 13.3051 12.9385 13.2551 12.9885C13.2051 13.0385 13.1374 13.0666 13.0667 13.0667Z" fill="#474747"/>
<path d="M4.08692 4.85462C4.13712 4.90425 4.20487 4.93209 4.27547 4.93209C4.34606 4.93209 4.41381 4.90425 4.46401 4.85462L5.66401 3.65462C5.71239 3.60428 5.7391 3.53698 5.73841 3.46717C5.73771 3.39735 5.70967 3.3306 5.6603 3.28123C5.61093 3.23186 5.54417 3.20383 5.47436 3.20314C5.40455 3.20245 5.33725 3.22917 5.28691 3.27755L4.27547 4.289L3.91075 3.92415C3.86042 3.87576 3.79311 3.84904 3.72329 3.84972C3.65347 3.85041 3.5867 3.87845 3.53733 3.92783C3.48796 3.9772 3.45992 4.04397 3.45924 4.1138C3.45856 4.18362 3.48529 4.25092 3.53369 4.30125L4.08692 4.85462Z" fill="#474747"/>
<path d="M6.24003 4.53333H8.80006C8.86988 4.53197 8.93638 4.50327 8.98528 4.45341C9.03418 4.40355 9.06157 4.3365 9.06157 4.26666C9.06157 4.19682 9.03417 4.12977 8.98527 4.07991C8.93637 4.03005 8.86986 4.00136 8.80004 4H6.24004C6.17022 4.00136 6.10371 4.03005 6.05481 4.07991C6.00591 4.12977 5.97852 4.19682 5.97852 4.26666C5.97851 4.3365 6.0059 4.40355 6.0548 4.45341C6.1037 4.50328 6.17021 4.53197 6.24003 4.53333Z" fill="#474747"/>
<path d="M4.08692 7.12219C4.13712 7.17183 4.20487 7.19967 4.27547 7.19967C4.34606 7.19967 4.41381 7.17183 4.46401 7.12219L5.66401 5.92219C5.71239 5.87186 5.7391 5.80456 5.73841 5.73474C5.73771 5.66493 5.70967 5.59817 5.6603 5.54881C5.61093 5.49944 5.54417 5.4714 5.47436 5.47072C5.40455 5.47003 5.33725 5.49674 5.28691 5.54513L4.27547 6.55658L3.91075 6.19173C3.86042 6.14334 3.79311 6.11662 3.72329 6.1173C3.65347 6.11799 3.5867 6.14603 3.53733 6.19541C3.48796 6.24478 3.45992 6.31155 3.45924 6.38137C3.45856 6.4512 3.48529 6.5185 3.53369 6.56883L4.08692 7.12219Z" fill="#474747"/>
<path d="M6.24003 6.80091H8.80006C8.86988 6.79955 8.93638 6.77085 8.98528 6.72099C9.03418 6.67113 9.06157 6.60407 9.06157 6.53424C9.06157 6.4644 9.03417 6.39735 8.98527 6.34749C8.93637 6.29763 8.86986 6.26894 8.80004 6.26758H6.24004C6.17022 6.26894 6.10371 6.29763 6.05481 6.34749C6.00591 6.39735 5.97852 6.4644 5.97852 6.53424C5.97851 6.60408 6.0059 6.67113 6.0548 6.72099C6.1037 6.77085 6.17021 6.79955 6.24003 6.80091Z" fill="#474747"/>
<path d="M4.08692 9.38782C4.13712 9.43746 4.20487 9.4653 4.27547 9.4653C4.34606 9.4653 4.41381 9.43746 4.46401 9.38782L5.66401 8.18782C5.71239 8.13748 5.7391 8.07018 5.73841 8.00037C5.73771 7.93056 5.70967 7.8638 5.6603 7.81443C5.61093 7.76507 5.54417 7.73703 5.47436 7.73634C5.40455 7.73565 5.33725 7.76237 5.28691 7.81075L4.27547 8.8222L3.91075 8.45736C3.86042 8.40896 3.79311 8.38224 3.72329 8.38293C3.65347 8.38361 3.5867 8.41166 3.53733 8.46103C3.48796 8.51041 3.45992 8.57718 3.45924 8.647C3.45856 8.71682 3.48529 8.78412 3.53369 8.83445L4.08692 9.38782Z" fill="#474747"/>
<path d="M6.24003 9.06654H8.80006C8.86988 9.06517 8.93638 9.03648 8.98528 8.98662C9.03418 8.93675 9.06157 8.8697 9.06157 8.79986C9.06157 8.73002 9.03417 8.66297 8.98527 8.61311C8.93637 8.56325 8.86986 8.53456 8.80004 8.5332H6.24004C6.17022 8.53456 6.10371 8.56325 6.05481 8.61312C6.00591 8.66298 5.97852 8.73003 5.97852 8.79986C5.97851 8.8697 6.0059 8.93675 6.0548 8.98662C6.1037 9.03648 6.17021 9.06517 6.24003 9.06654Z" fill="#474747"/>
</svg>
