<svg width="16" height="16" viewBox="0 0 16 16" fill="none" xmlns="http://www.w3.org/2000/svg">
<path d="M15.9385 6.72727L14.7651 2.41662C14.6091 1.84324 14.1616 1.39568 13.5882 1.2397L9.26868 0.0574718C8.68289 -0.0985055 8.05986 0.0681066 7.63002 0.495275L0.493183 7.6303C-0.164394 8.28876 -0.164394 9.35492 0.493183 10.0125L5.98336 15.5081C6.29531 15.8245 6.72247 16.0018 7.16738 16C7.61494 15.9991 8.04298 15.8201 8.35848 15.5028L15.5024 8.36597C15.9286 7.93615 16.0953 7.3122 15.9385 6.72727ZM14.6977 7.56476L7.56452 14.6998C7.45906 14.8035 7.31816 14.8628 7.17015 14.8655C7.0248 14.8682 6.88567 14.8106 6.78375 14.7069L1.28904 9.21216C1.18535 9.10847 1.12775 8.96845 1.12775 8.82311C1.12775 8.67688 1.18535 8.53686 1.28904 8.43407L8.4311 1.29632C8.53656 1.19086 8.67926 1.13148 8.82813 1.13059C8.87688 1.13059 8.92473 1.13768 8.97082 1.15097L13.293 2.32612C13.4765 2.37664 13.6192 2.51932 13.6697 2.70278L14.8404 7.025C14.8927 7.21731 14.8386 7.42203 14.6995 7.56472L14.6977 7.56476Z" fill="#474747"/>
<path d="M12.3242 3.6708C11.8448 3.19135 11.1234 3.04778 10.4968 3.30744C9.87023 3.5671 9.46167 4.17771 9.46167 4.85657C9.46167 5.53454 9.87023 6.14604 10.4968 6.4057C11.1234 6.66448 11.8448 6.52091 12.3242 6.04145C12.9774 5.38653 12.9774 4.32568 12.3242 3.6708ZM11.5213 5.24122C11.3928 5.36883 11.2093 5.42467 11.0321 5.38922C10.8539 5.35377 10.7059 5.23235 10.6368 5.06485C10.5677 4.89735 10.5863 4.70682 10.6864 4.55615C10.7875 4.40549 10.9567 4.31509 11.1375 4.31509C11.282 4.31421 11.4203 4.37093 11.5213 4.47373C11.7313 4.68643 11.7313 5.02852 11.5213 5.24122Z" fill="#474747"/>
</svg>
