<svg width="16" height="16" viewBox="0 0 16 16" fill="none" xmlns="http://www.w3.org/2000/svg">
<path d="M8 0C3.58885 0 0 3.58885 0 8C0 12.4112 3.58885 16 8 16C12.4112 16 16 12.4112 16 8C16 3.58885 12.4112 0 8 0ZM15.045 7.53097H11.287C11.2291 5.06423 10.7073 2.5703 9.76923 1.1617C12.6641 1.91215 14.8421 4.45599 15.045 7.53097ZM8 15.0619C6.93222 15.0619 5.74283 12.2719 5.65109 8.46903H10.3487C10.2571 12.274 9.06787 15.0619 8 15.0619ZM5.65109 7.53097C5.74269 3.72599 6.93213 0.938064 8 0.938064C9.06787 0.938064 10.2572 3.7258 10.3489 7.53097H5.65109ZM6.23077 1.1617C5.29271 2.57099 4.77311 5.06198 4.71302 7.53097H0.954949C1.15795 4.4558 3.33591 1.91215 6.23077 1.1617ZM0.954912 8.46903H4.71298C4.77088 10.9358 5.29267 13.4297 6.23073 14.8368C3.33587 14.0878 1.15791 11.544 0.954912 8.46903ZM9.76896 14.8368C10.707 13.4275 11.2266 10.9365 11.2867 8.46903H15.0448C14.8418 11.5442 12.6638 14.0878 9.76896 14.8368Z" fill="#474747"/>
</svg>
