<svg width="162" height="47" viewBox="0 0 162 47" fill="none" xmlns="http://www.w3.org/2000/svg">
<path d="M64.3073 32.0254V15.0099H68.0522V30.8785L65.735 28.5965H74.1726V32.0254H64.3073ZM76.0099 32.0254V15.0099H82.1889L84.3421 24.4421L84.939 27.3561H84.9858L85.5943 24.4421L87.7125 15.0099H93.9148V32.0254H90.2753V23.424L90.6381 17.9238H90.5211L88.9412 23.3889L86.4837 32.0254H83.4761L80.9835 23.3889L79.4036 17.9238H79.2866L79.6494 23.424V32.0254H76.0099ZM102.932 32.2594C101.629 32.2594 100.455 32.0566 99.4092 31.6509C98.3715 31.2374 97.5602 30.6016 96.975 29.7434C96.3899 28.8852 96.1208 27.7891 96.1676 26.455H99.7954C99.811 27.0167 99.928 27.4965 100.146 27.8944C100.365 28.2923 100.708 28.5965 101.176 28.8072C101.644 29.01 102.253 29.1115 103.002 29.1115C103.61 29.1115 104.11 29.049 104.5 28.9242C104.89 28.7994 105.175 28.616 105.354 28.3742C105.541 28.1245 105.635 27.8203 105.635 27.4614C105.635 27.0635 105.51 26.7358 105.26 26.4784C105.011 26.2131 104.617 25.9674 104.078 25.7411C103.548 25.5149 102.861 25.2574 102.019 24.9687C100.973 24.5943 100.057 24.173 99.2687 23.7049C98.4886 23.2368 97.8839 22.6633 97.4548 21.9846C97.0258 21.3058 96.8112 20.4711 96.8112 19.4802C96.8112 17.9355 97.3456 16.7613 98.4145 15.9578C99.4911 15.1464 100.95 14.7407 102.791 14.7407C104.047 14.7407 105.097 14.9396 105.939 15.3375C106.782 15.7276 107.425 16.3127 107.87 17.0929C108.323 17.8731 108.588 18.8405 108.666 19.9952H105.108C105.093 19.5427 104.995 19.1604 104.816 18.8483C104.644 18.5362 104.391 18.2983 104.055 18.1344C103.72 17.9706 103.302 17.8887 102.803 17.8887C102.046 17.8887 101.469 18.0135 101.071 18.2632C100.673 18.505 100.474 18.8912 100.474 19.4217C100.474 19.8196 100.564 20.159 100.743 20.4399C100.931 20.7129 101.25 20.9704 101.703 21.2122C102.155 21.4541 102.783 21.7232 103.587 22.0197C104.336 22.2928 105.054 22.5619 105.74 22.8272C106.435 23.0846 107.055 23.3928 107.601 23.7517C108.147 24.1028 108.576 24.5475 108.888 25.0858C109.208 25.6241 109.368 26.3106 109.368 27.1454C109.376 28.8462 108.795 30.1257 107.624 30.9839C106.454 31.8342 104.89 32.2594 102.932 32.2594ZM124.869 32.0254V15.0099H128.602V32.0254H124.869ZM115.46 32.0254V15.0099H119.193V32.0254H115.46ZM118.093 24.9687V21.6218H125.489L125.478 24.9687H118.093ZM138.238 32.2594C136.896 32.2594 135.725 31.9942 134.727 31.4637C133.736 30.9253 132.964 30.153 132.41 29.1466C131.864 28.1323 131.591 26.9153 131.591 25.4954V15.0099H135.347V25.0624C135.347 25.7177 135.406 26.2872 135.523 26.7709C135.647 27.2546 135.831 27.6603 136.073 27.988C136.322 28.3079 136.627 28.5458 136.985 28.7019C137.352 28.8579 137.777 28.9359 138.261 28.9359C138.737 28.9359 139.15 28.8579 139.501 28.7019C139.86 28.5458 140.157 28.3079 140.391 27.988C140.633 27.6681 140.812 27.2663 140.929 26.7826C141.054 26.2911 141.116 25.7177 141.116 25.0624V15.0099H144.873V25.4954C144.873 26.8919 144.6 28.0972 144.054 29.1115C143.508 30.1257 142.739 30.9058 141.748 31.452C140.758 31.9903 139.587 32.2594 138.238 32.2594ZM147.871 32.0254V15.0099H153.804C155.099 15.0099 156.164 15.1854 156.999 15.5365C157.842 15.8876 158.466 16.3752 158.871 16.9993C159.285 17.6234 159.492 18.349 159.492 19.176C159.492 20.2292 159.183 21.0718 158.567 21.7037C157.959 22.3357 157.167 22.6945 156.191 22.7804C157.05 22.8662 157.767 23.0729 158.345 23.4006C158.93 23.7283 159.371 24.1769 159.667 24.7464C159.971 25.3081 160.124 26.0025 160.124 26.8295C160.124 27.9217 159.878 28.8579 159.386 29.6381C158.895 30.4104 158.181 31.0034 157.245 31.4169C156.316 31.8225 155.189 32.0254 153.863 32.0254H147.871ZM151.522 28.9359H153.652C154.58 28.9359 155.244 28.7682 155.641 28.4327C156.039 28.0972 156.238 27.5277 156.238 26.7241C156.238 26.1 156.129 25.6358 155.911 25.3315C155.7 25.0273 155.392 24.8244 154.986 24.723C154.58 24.6216 154.085 24.5709 153.5 24.5709H151.522V28.9359ZM151.522 21.9261H153.547C154.038 21.9261 154.444 21.8481 154.764 21.692C155.091 21.536 155.333 21.3058 155.489 21.0016C155.653 20.6973 155.735 20.3228 155.735 19.8781C155.735 19.2462 155.532 18.7898 155.127 18.5089C154.721 18.2203 154.163 18.0759 153.453 18.0759H151.522V21.9261Z" fill="white"/>
<rect y="0.0253906" width="46.8103" height="46.8103" rx="23.4051" fill="#5F71FA"/>
<path d="M14.2104 11.7285H18.0791C20.2237 11.7285 21.9622 13.4671 21.9622 15.6116V35.1336H18.0936C15.949 35.1336 14.2104 33.3951 14.2104 31.2505V11.7285Z" fill="white"/>
<path d="M24.54 29.6042C24.54 28.3978 25.518 27.4199 26.7243 27.4199H33.2274V32.9487C33.2274 34.155 32.2495 35.133 31.0431 35.133H24.54V29.6042Z" fill="white"/>
</svg>
