<svg width="192" height="56" viewBox="0 0 192 56" fill="none" xmlns="http://www.w3.org/2000/svg">
<path d="M76.7271 38V17.644H80.6611V36.628L78.4351 34.346H88.5291V38H76.7271ZM91.0279 38V17.644H97.4119L100.254 28.382L101.22 32.232H101.29L102.284 28.382L105.056 17.644H111.468V38H107.618V27.066L107.94 21.074H107.828L106.05 26.954L102.648 38H99.9319L96.4459 26.954L94.6679 21.074H94.5419L94.8639 27.066V38H91.0279ZM122.132 38.28C120.611 38.28 119.262 38.042 118.086 37.566C116.91 37.0807 115.991 36.3433 115.328 35.354C114.675 34.3553 114.357 33.0907 114.376 31.56H118.184C118.203 32.288 118.361 32.904 118.66 33.408C118.968 33.9027 119.421 34.276 120.018 34.528C120.625 34.78 121.376 34.906 122.272 34.906C123.065 34.906 123.714 34.822 124.218 34.654C124.722 34.4767 125.095 34.22 125.338 33.884C125.581 33.548 125.702 33.1467 125.702 32.68C125.702 32.1667 125.548 31.7373 125.24 31.392C124.932 31.0373 124.447 30.7107 123.784 30.412C123.121 30.104 122.258 29.768 121.194 29.404C119.981 28.9747 118.917 28.48 118.002 27.92C117.097 27.3507 116.397 26.6647 115.902 25.862C115.407 25.05 115.16 24.0793 115.16 22.95C115.16 21.1113 115.776 19.716 117.008 18.764C118.249 17.8027 119.939 17.322 122.076 17.322C123.541 17.322 124.75 17.5507 125.702 18.008C126.654 18.4653 127.377 19.142 127.872 20.038C128.376 20.934 128.689 22.04 128.81 23.356H125.044C124.997 22.7773 124.853 22.292 124.61 21.9C124.377 21.4987 124.045 21.2 123.616 21.004C123.196 20.7987 122.669 20.696 122.034 20.696C121.063 20.696 120.317 20.8733 119.794 21.228C119.271 21.5827 119.01 22.124 119.01 22.852C119.01 23.328 119.113 23.748 119.318 24.112C119.523 24.4667 119.901 24.812 120.452 25.148C121.012 25.4747 121.819 25.8387 122.874 26.24C123.761 26.5853 124.61 26.9167 125.422 27.234C126.234 27.5513 126.953 27.9247 127.578 28.354C128.213 28.774 128.707 29.3013 129.062 29.936C129.426 30.5613 129.613 31.364 129.622 32.344C129.631 34.2947 128.978 35.774 127.662 36.782C126.346 37.7807 124.503 38.28 122.132 38.28ZM148.496 38V17.644H152.416V38H148.496ZM137.184 38V17.644H141.104V38H137.184ZM139.928 29.306V25.806H149.14L149.112 29.306H139.928ZM164.128 38.28C162.57 38.28 161.207 37.972 160.04 37.356C158.874 36.7307 157.968 35.8113 157.324 34.598C156.69 33.3847 156.372 31.9007 156.372 30.146V17.616H160.348V29.852C160.348 30.72 160.432 31.4667 160.6 32.092C160.768 32.708 161.016 33.212 161.342 33.604C161.678 33.996 162.08 34.2853 162.546 34.472C163.013 34.6493 163.545 34.738 164.142 34.738C164.712 34.738 165.22 34.6493 165.668 34.472C166.126 34.2853 166.513 33.996 166.83 33.604C167.148 33.212 167.39 32.708 167.558 32.092C167.736 31.4667 167.824 30.72 167.824 29.852V17.644H171.8V30.146C171.8 31.882 171.478 33.3567 170.834 34.57C170.19 35.7833 169.29 36.7073 168.132 37.342C166.984 37.9673 165.65 38.28 164.128 38.28ZM175.739 38V17.644H182.711C184.232 17.644 185.478 17.8633 186.449 18.302C187.429 18.7407 188.152 19.338 188.619 20.094C189.095 20.8407 189.333 21.6993 189.333 22.67C189.333 23.9113 188.973 24.91 188.255 25.666C187.545 26.4127 186.603 26.8373 185.427 26.94C186.416 27.024 187.251 27.2527 187.933 27.626C188.614 27.9993 189.132 28.522 189.487 29.194C189.851 29.866 190.033 30.7013 190.033 31.7C190.033 33.072 189.734 34.2293 189.137 35.172C188.549 36.1053 187.713 36.81 186.631 37.286C185.557 37.762 184.288 38 182.823 38H175.739ZM179.561 34.612H182.375C183.607 34.612 184.507 34.4067 185.077 33.996C185.646 33.576 185.931 32.8107 185.931 31.7C185.931 30.86 185.777 30.244 185.469 29.852C185.161 29.46 184.731 29.208 184.181 29.096C183.639 28.984 183.005 28.928 182.277 28.928H179.561V34.612ZM179.561 25.988H182.263C183 25.988 183.588 25.8853 184.027 25.68C184.475 25.4653 184.797 25.1573 184.993 24.756C185.198 24.3547 185.301 23.8553 185.301 23.258C185.31 22.446 185.03 21.8673 184.461 21.522C183.901 21.1767 183.149 21.004 182.207 21.004H179.561V25.988Z" fill="#0A1244"/>
<rect width="56" height="56" rx="28" fill="#5F71FA"/>
<path d="M17 14H21.6281C24.1938 14 26.2736 16.0798 26.2736 18.6455V42H21.6455C19.0798 42 17 39.9201 17 37.3545V14Z" fill="white"/>
<path d="M29.3569 35.3865C29.3569 33.9433 30.5268 32.7734 31.97 32.7734H39.7498V39.3876C39.7498 40.8308 38.5799 42.0007 37.1367 42.0007H29.3569V35.3865Z" fill="white"/>
</svg>
