<svg width="16" height="16" viewBox="0 0 16 16" fill="none" xmlns="http://www.w3.org/2000/svg">
<path fill-rule="evenodd" clip-rule="evenodd" d="M11.2886 1.02539H4.72825C2.44209 1.02539 1.00879 2.64409 1.00879 4.9348V11.116C1.00879 13.4067 2.43452 15.0254 4.72825 15.0254H11.2878C13.5815 15.0254 15.0088 13.4067 15.0088 11.116V4.9348C15.0088 2.64409 13.5815 1.02539 11.2886 1.02539Z" stroke="#5F71FA" stroke-linecap="round" stroke-linejoin="round"/>
<path opacity="0.4" d="M10.5745 9.55184L8.0083 8.02092V4.7207" stroke="#5F71FA" stroke-linecap="round" stroke-linejoin="round"/>
<path fill-rule="evenodd" clip-rule="evenodd" d="M11.2886 1.02539H4.72825C2.44209 1.02539 1.00879 2.64409 1.00879 4.9348V11.116C1.00879 13.4067 2.43452 15.0254 4.72825 15.0254H11.2878C13.5815 15.0254 15.0088 13.4067 15.0088 11.116V4.9348C15.0088 2.64409 13.5815 1.02539 11.2886 1.02539Z" stroke="#5F71FA" stroke-linecap="round" stroke-linejoin="round"/>
<path d="M10.5745 9.55184L8.0083 8.02092V4.7207" stroke="#5F71FA" stroke-linecap="round" stroke-linejoin="round"/>
</svg>
