<svg width="19" height="14" viewBox="0 0 19 14" fill="none" xmlns="http://www.w3.org/2000/svg">
<path d="M17.5 0H0.7C0.514349 0 0.336301 0.0737499 0.205025 0.205025C0.0737498 0.336301 0 0.514348 0 0.7V12.6C0 12.9713 0.1475 13.3274 0.41005 13.5899C0.672601 13.8525 1.0287 14 1.4 14H16.8C17.1713 14 17.5274 13.8525 17.79 13.5899C18.0525 13.3274 18.2 12.9713 18.2 12.6V0.7C18.2 0.514348 18.1263 0.336301 17.995 0.205025C17.8637 0.0737499 17.6857 0 17.5 0ZM15.7001 1.4L9.1 7.45062L2.49988 1.4H15.7001ZM16.8 12.6H1.4V2.29163L8.62663 8.91625C8.75577 9.0348 8.92469 9.10058 9.1 9.10058C9.27531 9.10058 9.44423 9.0348 9.57338 8.91625L16.8 2.29163V12.6Z" fill="white"/>
</svg>
