<svg width="15" height="14" viewBox="0 0 15 14" fill="none" xmlns="http://www.w3.org/2000/svg">
<path d="M13.5262 9.41215L10.2285 7.93444L10.2194 7.93023C10.0482 7.85701 9.86144 7.82763 9.67603 7.84474C9.49062 7.86185 9.3124 7.92492 9.15749 8.02824C9.13925 8.04028 9.12172 8.05337 9.10499 8.06744L7.40117 9.51995C6.32176 8.99565 5.20735 7.88963 4.68305 6.82422L6.13766 5.09451C6.15166 5.07701 6.16496 5.05951 6.17756 5.04061C6.27866 4.88612 6.34 4.70903 6.35612 4.5251C6.37224 4.34118 6.34264 4.15612 6.26996 3.9864V3.978L4.78805 0.674665C4.69196 0.452948 4.52675 0.268251 4.31707 0.148147C4.10739 0.028042 3.86449 -0.0210292 3.62463 0.00825843C2.6761 0.133074 1.80544 0.598902 1.17526 1.31874C0.545086 2.03857 0.198487 2.96319 0.200202 3.9199C0.200202 9.47795 4.72225 14 10.2803 14C11.237 14.0017 12.1616 13.6551 12.8815 13.0249C13.6013 12.3948 14.0671 11.5241 14.1919 10.5756C14.2213 10.3358 14.1723 10.0929 14.0523 9.88328C13.9324 9.67361 13.7478 9.50835 13.5262 9.41215ZM10.2803 12.88C7.90473 12.8774 5.62721 11.9325 3.94743 10.2528C2.26765 8.57299 1.32281 6.29546 1.32021 3.9199C1.31758 3.23633 1.56385 2.57518 2.01303 2.05991C2.46222 1.54465 3.0836 1.2105 3.76114 1.11987C3.76086 1.12266 3.76086 1.12548 3.76114 1.12827L5.23115 4.4183L3.78424 6.15012C3.76955 6.16702 3.75621 6.18504 3.74434 6.20402C3.639 6.36566 3.5772 6.55178 3.56493 6.74433C3.55267 6.93687 3.59035 7.12933 3.67434 7.30303C4.30854 8.60014 5.61545 9.89725 6.92657 10.5308C7.10154 10.614 7.29511 10.6503 7.48835 10.6363C7.6816 10.6224 7.8679 10.5585 8.02908 10.451C8.04705 10.4389 8.06434 10.4258 8.08088 10.4118L9.78259 8.95995L13.0726 10.4335C13.0726 10.4335 13.0782 10.4335 13.0803 10.4335C12.9908 11.112 12.6572 11.7346 12.1418 12.1849C11.6264 12.6352 10.9647 12.8823 10.2803 12.88Z" fill="white"/>
</svg>
